<svg version="1.1" xmlns="http://www.w3.org/2000/svg" width="1024" height="1024" viewBox="0 0 1024 1024"><path fill="#ffffff" d="M212.935 173.918c-15.914 15.029-30.981 31.448-45.048 49.256-128.274 162.431-126.005 397.454 5.063 557.637 174.665 213.456 495.437 219.332 678.13 17.629 147.991-163.373 153.493-416.015 12.17-585.178-64.908-77.71-149.372-127.268-239.263-148.719-32.454-7.75-64.405 14.857-68.194 47.996l-2.59 22.649c-3.158 27.584 14.407 53.476 41.36 60.102 63.506 15.563 123.041 51.229 168.36 106.985 94.836 116.65 91.475 288.725-7.407 401.95-129.088 147.777-361.896 142.832-484.027-14.867-87.15-112.529-85.663-274.104 3.297-385.188 10.293-12.852 21.338-24.649 32.994-35.402l58.375 58.378c13.969 13.947 37.849 5.159 39.444-14.504l18.571-229.383c1.145-14.172-10.64-26.010-24.822-24.94l-230.475 17.458c-19.727 1.499-28.622 25.464-14.621 39.444l58.694 58.697z"></path></svg>